<?xml version="1.0" encoding="UTF-8" standalone="no"?>
<svg
   xmlns:dc="http://purl.org/dc/elements/1.1/"
   xmlns:cc="http://creativecommons.org/ns#"
   xmlns:rdf="http://www.w3.org/1999/02/22-rdf-syntax-ns#"
   xmlns:svg="http://www.w3.org/2000/svg"
   xmlns="http://www.w3.org/2000/svg"
   viewBox="0 0 420 300"
   height="300"
   width="420"
   version="1.1"
   id="svg4146">
  <metadata
     id="metadata4152">
    <rdf:RDF>
      <cc:Work
         rdf:about="">
        <dc:format>image/svg+xml</dc:format>
        <dc:type
           rdf:resource="http://purl.org/dc/dcmitype/StillImage" />
        <dc:title></dc:title>
      </cc:Work>
    </rdf:RDF>
  </metadata>
  <defs
     id="defs4150" />
  <path
     id="path4696"
     d="m 227.01134,181.31246 c -0.15836,-0.0804 -0.39559,-0.23778 -0.52718,-0.34972 -0.23401,-0.19907 -0.23558,-0.19916 -0.072,-0.004 0.16721,0.19943 0.23117,0.47146 0.0953,0.40525 -0.35008,-0.17057 -0.58837,-0.26383 -0.79179,-0.3099 -0.13196,-0.0299 -0.67182,-0.4473 -1.19968,-0.92759 -0.52786,-0.48029 -1.30525,-1.10012 -1.72754,-1.3774 -1.44898,-0.95143 -3.95537,-3.05892 -6.23835,-5.2455 -0.739,-0.7078 -1.79712,-1.69494 -2.35138,-2.19364 -5.92058,-5.32722 -7.33585,-6.78618 -9.41284,-9.70349 -3.18807,-4.47791 -3.07165,-4.27257 -8.21345,-14.48633 -6.13618,-12.18902 -7.10822,-14.02175 -9.13411,-17.22206 -1.44309,-2.27965 -4.19062,-5.77316 -5.81834,-7.39805 -2.24552,-2.24165 -4.2769,-3.41546 -7.48269,-4.32381 -1.42674,-0.40426 -1.89729,-0.40143 -2.69399,0.0162 -0.26462,0.13871 -0.63815,0.30863 -0.83006,0.3776 -0.19192,0.069 -0.51584,0.23072 -0.71981,0.35944 -0.20398,0.12872 -0.46805,0.26486 -0.58682,0.30252 -0.17801,0.0564 -0.21594,0.0324 -0.21594,-0.13699 0,-0.19885 -0.0166,-0.19597 -0.51555,0.0895 -0.60392,0.34553 -0.73212,0.36357 -0.73212,0.10302 0,-0.2013 -0.14298,-0.23962 -0.74129,-0.19868 -0.63196,0.0432 -0.62288,0.004 0.37838,-1.65759 0.31313,-0.51948 0.55063,-0.96322 0.52777,-0.98608 -0.0229,-0.0229 -0.29433,0.0243 -0.60325,0.10474 -0.72887,0.18984 -0.74454,0.18782 -0.67556,-0.087 0.0558,-0.22246 0.0444,-0.22921 -0.24717,-0.1456 -0.16815,0.0482 -0.32262,0.0708 -0.34327,0.0501 -0.0207,-0.0207 0.43591,-0.50578 1.01457,-1.07807 0.79179,-0.78307 1.12603,-1.19138 1.35084,-1.65022 0.1643,-0.33533 0.29873,-0.65754 0.29873,-0.71602 0,-0.27153 0.44939,-1.22546 0.59979,-1.2732 0.20537,-0.0652 0.22267,-0.23234 0.024,-0.23234 -0.0792,0 -0.14396,-0.0797 -0.14396,-0.17707 0,-0.22541 0.33547,-0.53387 0.50843,-0.4675 0.0724,0.0278 0.33916,-0.11314 0.59275,-0.31318 0.40247,-0.31749 0.54782,-0.37193 1.14356,-0.42834 0.37537,-0.0355 0.84836,-0.10804 1.05109,-0.16109 0.44359,-0.11609 1.59396,0.037 1.9294,0.25682 0.59989,0.39306 1.48541,0.54088 3.70041,0.61768 l 2.15942,0.0749 1.14488,0.40216 c 1.79398,0.63018 2.57949,1.07268 4.32567,2.43679 0.87648,0.68469 2.09293,1.9458 2.46702,2.55758 0.11297,0.18475 0.55759,1.00534 0.98804,1.82352 0.43045,0.81818 1.17227,2.11384 1.64847,2.87924 1.62296,2.60855 2.14701,3.61928 3.53306,6.81419 0.51526,1.18769 1.26112,2.85045 1.65747,3.69502 1.11347,2.37267 1.53229,3.38554 2.89698,7.00615 3.0521,8.09742 4.39852,10.83622 7.23853,14.72415 1.13959,1.5601 3.42368,4.42278 3.52886,4.42278 0.2373,0 1.19171,-2.53479 1.39532,-3.70582 0.22119,-1.27207 0.25987,-9.10959 0.0456,-9.24203 -0.0908,-0.0562 -0.10334,-0.13443 -0.0416,-0.26045 0.12759,-0.26033 0.0694,-4.74429 -0.11011,-8.48196 -0.34777,-7.24213 -0.85159,-13.79369 -1.59047,-20.68252 -0.52301,-4.87616 -0.57103,-5.51275 -0.62984,-8.34979 -0.079,-3.81061 -0.003,-4.73079 0.52588,-6.38257 0.47538,-1.484216 1.42811,-3.839156 1.94129,-4.798466 0.49102,-0.91788 1.33915,-2.03129 1.80798,-2.37347 0.83663,-0.61064 2.84034,-1.46094 4.36911,-1.85409 0.15835,-0.0407 0.65502,-0.20344 1.1037,-0.36159 0.49871,-0.17578 1.09556,-0.30706 1.5356,-0.33776 0.39589,-0.0276 1.3515,-0.11907 2.12357,-0.20322 2.19263,-0.239 4.28089,-0.2283 5.8903,0.0302 0.91381,0.14676 1.55857,0.19947 2.01547,0.16476 5.44238,-0.41342 15.48743,-0.89834 15.58467,-0.75234 0.0325,0.0489 0.36502,0.13849 0.73881,0.19914 0.3738,0.0606 0.87845,0.19823 1.12145,0.30572 0.30943,0.13688 0.80657,0.22328 1.65907,0.28835 1.2721,0.0971 1.79108,0.21455 3.06613,0.69392 0.87173,0.32773 2.57184,0.87212 4.1269,1.32147 1.23233,0.35609 2.04772,0.65792 2.26805,0.83955 0.0861,0.071 0.31708,0.1734 0.5132,0.22755 0.19614,0.0541 0.49276,0.18149 0.65918,0.28297 l 0.30258,0.1845 -0.71981,0.002 -0.71981,0.002 0.41838,0.18984 c 0.23011,0.10441 0.47844,0.18984 0.55185,0.18984 0.0734,0 0.13348,0.0795 0.13348,0.17676 0,0.12333 0.12327,0.2165 0.40789,0.30826 l 0.4079,0.13151 -0.42008,0.0516 -0.42007,0.0516 0.66001,0.26 0.66001,0.26 -0.55186,0.004 c -0.62536,0.005 -0.71129,0.1258 -0.21594,0.30492 0.50778,0.18362 0.40632,0.2744 -0.31192,0.27907 l -0.64782,0.004 0.38389,0.14649 c 0.21115,0.0806 0.52427,0.1939 0.69582,0.25183 0.46231,0.15612 0.37855,0.2433 -0.182,0.18944 -0.55691,-0.0535 -0.57648,0.0851 -0.0464,0.32856 0.28371,0.13032 0.25773,0.13539 -0.4674,0.0913 -0.63655,-0.0387 -0.72267,-0.028 -0.50386,0.063 0.4184,0.17397 0.30952,0.254 -0.28793,0.21161 -0.4895,-0.0347 -0.52203,-0.0264 -0.28792,0.0735 0.47372,0.20212 0.29572,0.29835 -0.43725,0.23639 -0.67311,-0.0569 -5.69243,-0.99165 -6.78484,-1.26354 -1.74561,-0.43448 -5.62504,-1.19987 -7.03708,-1.38838 -0.41291,-0.0551 -1.01934,-0.10023 -1.34763,-0.10023 -0.32828,0 -1.11335,-0.0693 -1.74459,-0.15406 -1.96866,-0.26424 -5.36885,-0.0718 -7.9619,0.4507 -1.64817,0.33209 -4.71398,1.13897 -6.03163,1.58744 -0.69434,0.23633 -1.60795,0.50941 -2.03024,0.60684 -2.16535,0.49963 -2.96759,0.78076 -4.4621,1.56365 -0.91068,0.47706 -1.64249,0.931076 -1.88554,1.169796 -0.21847,0.21458 -0.87306,0.81372 -1.45463,1.33143 -1.48809,1.32466 -1.75709,1.88025 -2.35556,4.86517 -0.13229,0.65983 -0.33226,1.83431 -0.44436,2.60997 l -0.20383,1.41028 0.24819,1.99682 c 0.13651,1.09824 0.28792,2.25594 0.33646,2.57266 0.0485,0.31671 0.13661,1.24527 0.19571,2.06345 0.0591,0.81818 0.36421,4.1653 0.67801,7.43803 0.3138,3.27273 0.67813,7.09435 0.80962,8.49249 0.24327,2.58667 0.48254,3.84102 0.80978,4.24514 0.16163,0.1996 0.1771,0.20096 0.5069,0.0445 0.18711,-0.0888 0.48482,-0.16172 0.6616,-0.16206 0.17677,-3.9e-4 0.44827,-0.0843 0.60334,-0.18649 0.31458,-0.20737 0.43787,-0.18011 0.43787,0.0968 0,0.18691 0.25763,0.24756 0.83941,0.19763 0.11857,-0.0102 0.30325,0.0284 0.41041,0.0858 0.15505,0.083 0.27385,0.0599 0.58172,-0.11316 0.3214,-0.18064 0.40099,-0.19459 0.47031,-0.0824 0.0693,0.11206 0.1458,0.11492 0.45038,0.0168 0.20182,-0.065 0.89013,-0.15753 1.52957,-0.20564 0.87734,-0.066 1.28953,-0.14361 1.67983,-0.31622 0.28447,-0.12581 0.82854,-0.29905 1.20904,-0.38498 0.38051,-0.0859 0.89864,-0.25985 1.15142,-0.3865 0.34237,-0.17154 0.63904,-0.23498 1.16322,-0.24873 0.51674,-0.0136 0.91188,-0.0965 1.48761,-0.31228 0.69275,-0.25964 0.99056,-0.30836 2.5595,-0.41875 1.77489,-0.12487 1.77617,-0.12513 3.54413,-0.70861 1.41125,-0.46576 1.89097,-0.58369 2.37422,-0.58369 0.40443,0 0.90093,-0.0937 1.49454,-0.28201 0.4889,-0.1551 1.21282,-0.3267 1.60872,-0.38131 0.41532,-0.0573 1.74127,-0.44118 3.13456,-0.9075 l 2.41474,-0.80818 1.9521,-0.062 c 1.07365,-0.0341 2.15724,-0.0859 2.40797,-0.11516 0.25152,-0.0293 0.45588,-0.0137 0.45588,0.0349 0,0.0485 -0.20514,0.15678 -0.45588,0.24069 -0.45531,0.15237 -0.45447,0.15249 0.67183,0.0982 0.62023,-0.0299 1.1277,-0.0268 1.1277,0.007 0,0.0337 -0.19272,0.10976 -0.42826,0.16907 -0.38255,0.0963 -0.41274,0.12336 -0.28288,0.25322 0.11643,0.11643 0.28078,0.13205 0.82515,0.0784 0.5956,-0.0587 0.67259,-0.0483 0.6218,0.0841 -0.0479,0.12487 0.0288,0.15268 0.44289,0.16046 l 0.50085,0.009 -0.52786,0.17314 c -0.48251,0.15826 -0.50057,0.17394 -0.21028,0.18254 0.45346,0.0134 0.30772,0.14873 -0.36296,0.33691 -0.31815,0.0893 -0.57845,0.17458 -0.57845,0.18958 0,0.015 0.46427,0.0129 1.03172,-0.005 1.08901,-0.0336 1.08291,0.0347 -0.024,0.26908 l -0.57585,0.12194 1.00774,0.10363 c 0.83779,0.0862 0.95108,0.11589 0.67182,0.17636 -0.18475,0.04 -0.64903,0.13854 -1.03173,0.21895 -0.3827,0.0804 -0.69581,0.171 -0.69581,0.20132 0,0.0303 0.24833,0.0299 0.55185,-9.8e-4 0.30352,-0.0308 0.70301,-0.0235 0.88776,0.0163 0.29033,0.0625 0.14052,0.11063 -1.1037,0.35433 l -1.43962,0.28197 1.4876,0.048 c 1.50287,0.0485 1.51794,0.0646 0.28793,0.3083 l -0.62384,0.12359 0.7678,0.048 0.7678,0.048 -0.88132,0.23826 c -0.50453,0.13639 -0.83279,0.26912 -0.7678,0.31045 0.08,0.0509 0.0814,0.0726 0.005,0.0737 -0.0597,7.7e-4 -0.67793,0.0875 -1.37386,0.19263 -0.69594,0.10514 -1.91091,0.2773 -2.69995,0.38257 -0.90615,0.1209 -1.57021,0.26059 -1.80273,0.37921 -0.20246,0.10328 -0.75562,0.25503 -1.22926,0.33721 -0.47364,0.0822 -1.05244,0.21328 -1.28623,0.29134 -0.23379,0.0781 -0.99456,0.22925 -1.6906,0.33598 -0.69604,0.10673 -1.36546,0.23195 -1.48761,0.27827 -0.12214,0.0463 -0.69715,0.15656 -1.2778,0.24498 -1.40304,0.21364 -3.34787,0.60387 -3.89992,0.78252 -0.24465,0.0792 -1.00045,0.22867 -1.67955,0.3322 -0.6791,0.10353 -1.77458,0.29418 -2.4344,0.42366 -0.65983,0.12948 -1.69635,0.30468 -2.30339,0.38934 -0.60704,0.0846 -1.60038,0.28389 -2.20742,0.44275 -3.35741,0.87865 -4.82983,1.27597 -5.51525,1.48825 -0.42048,0.13023 -1.32744,0.33976 -2.01547,0.46562 -0.68802,0.12586 -1.37284,0.25881 -1.52181,0.29546 -0.16155,0.0397 -0.36227,0.0177 -0.49739,-0.0546 -0.26611,-0.14241 -0.52741,-0.0697 -0.52741,0.14681 0,0.0839 0.12647,0.65753 0.28104,1.27468 0.15457,0.61714 0.48097,2.1802 0.72534,3.47346 0.48975,2.5919 0.64258,3.28689 1.49147,6.78243 0.99336,4.09041 1.47699,5.68664 2.61216,8.62149 0.36751,0.95015 0.84188,2.22421 1.05416,2.83125 0.45136,1.29072 0.96109,2.44838 1.93617,4.39726 1.61461,3.2271 2.38404,5.27203 2.53443,6.73579 0.0643,0.62584 0.0692,1.01986 0.013,1.03973 -0.0498,0.0176 -0.0905,0.20114 -0.0905,0.40789 0,0.28169 -0.0388,0.3759 -0.15465,0.3759 -0.12407,0 -0.14247,0.0649 -0.0931,0.32831 0.05,0.26668 0.0295,0.33557 -0.10929,0.36697 -0.094,0.0213 -0.24646,-0.0252 -0.33883,-0.10325 -0.19641,-0.16595 -0.22884,-0.0214 -0.0642,0.28627 0.13494,0.25213 0.0463,0.33192 -0.22386,0.20157 -0.37337,-0.18012 -0.64768,-0.20926 -0.64768,-0.0688 0,0.0711 0.0432,0.15601 0.096,0.18863 0.0528,0.0326 0.096,0.12047 0.096,0.19522 0,0.10146 -0.079,0.12092 -0.31192,0.0768 -0.17156,-0.0325 -0.3659,-0.10149 -0.43189,-0.15331 -0.0877,-0.0688 -0.11996,-0.0409 -0.11996,0.10381 0,0.10892 0.0432,0.22473 0.096,0.25735 0.11109,0.0687 0.13114,0.34089 0.024,0.32573 -0.0396,-0.006 -0.20154,-0.076 -0.3599,-0.15638 z"
     style="fill:#0000ff;fill-opacity:1" />
  <text
     id="text4698"
     y="176.05933"
     x="240.57204"
     style="font-style:normal;font-weight:normal;font-size:40px;line-height:125%;font-family:sans-serif;letter-spacing:0px;word-spacing:0px;fill:#000000;fill-opacity:1;stroke:none;stroke-width:1px;stroke-linecap:butt;stroke-linejoin:miter;stroke-opacity:1"
     xml:space="preserve"><tspan
       style="-inkscape-font-specification:'Segoe Print';font-family:'Segoe Print';font-weight:normal;font-style:normal;font-stretch:normal;font-variant:normal"
       y="176.05933"
       x="240.57204"
       id="tspan4700">errarini</tspan></text>
  <text
     id="text4706"
     y="187.81781"
     x="60.381359"
     style="font-style:normal;font-weight:normal;font-size:40px;line-height:125%;font-family:sans-serif;letter-spacing:0px;word-spacing:0px;fill:#000000;fill-opacity:1;stroke:none;stroke-width:1px;stroke-linecap:butt;stroke-linejoin:miter;stroke-opacity:1"
     xml:space="preserve"><tspan
       style="font-style:normal;font-variant:normal;font-weight:normal;font-stretch:normal;font-family:'Segoe Print';-inkscape-font-specification:'Segoe Print'"
       y="187.81781"
       x="60.381359"
       id="tspan4708" /></text>
  <g
     transform="matrix(-1,0,0,1,324.81793,-62.923729)"
     id="text4729"
     style="font-style:normal;font-weight:normal;font-size:40px;line-height:125%;font-family:sans-serif;letter-spacing:0px;word-spacing:0px;fill:#000000;fill-opacity:1;stroke:none;stroke-width:1px;stroke-linecap:butt;stroke-linejoin:miter;stroke-opacity:1">
    <path
       id="path4734"
       style="font-style:normal;font-variant:normal;font-weight:normal;font-stretch:normal;font-family:'Segoe Print';-inkscape-font-specification:'Segoe Print'"
       d="m 150.24861,228.23059 q 0,1.99219 -3.53515,4.80469 -3.51563,2.8125 -7.26563,2.8125 -3.14453,0 -4.86328,-1.85547 -1.69922,-1.85547 -1.69922,-5.17578 0,-5.58594 3.76953,-10.625 3.76953,-5.03906 8.24219,-5.03906 1.46484,0 2.38281,0.95703 0.9375,0.95703 0.9375,2.30468 0,3.00782 -2.94922,5.76172 -2.94922,2.75391 -7.89062,5.41016 -1.01563,0.52734 -1.01563,1.36719 0,1.62109 0.9375,2.59765 0.9375,0.97657 2.77344,0.97657 4.19922,0 8.57422,-4.64844 0.64453,-0.64453 0.97656,-0.64453 0.625,0 0.625,0.99609 z m -13.57422,-3.04687 q 8.28125,-4.92188 8.28125,-7.91016 0,-1.17188 -1.05468,-1.17188 -1.79688,0 -4.0625,2.63672 -2.2461,2.63672 -3.16407,6.44532 z" />
    <path
       id="path4736"
       style="font-style:normal;font-variant:normal;font-weight:normal;font-stretch:normal;font-family:'Segoe Print';-inkscape-font-specification:'Segoe Print'"
       d="m 158.25642,227.09778 q 0.19532,-0.35156 0.46875,-0.97656 1.32813,-3.04688 2.44141,-4.76563 1.11328,-1.73828 2.44141,-3.32031 1.34765,-1.58203 2.4414,-2.40235 1.11328,-0.82031 2.01172,-1.13281 0.89844,-0.33203 1.73828,-0.33203 1.69922,0 2.77344,1.03516 1.07422,1.01562 1.07422,2.38281 0,0.60547 -0.39063,1.09375 -0.37109,0.48828 -1.15234,0.48828 -0.82031,0 -1.50391,-0.72266 -0.70312,-0.72265 -1.46484,-0.72265 -2.03125,0 -5.625,4.92187 -3.59375,4.92188 -4.375,10.83985 -0.19531,1.52343 -0.74219,2.01172 -0.54687,0.48828 -1.54297,0.48828 -0.95703,0 -1.38671,-1.42578 -0.42969,-1.42579 -0.42969,-4.80469 0,-0.91797 0.0976,-4.04297 0.11719,-3.69141 0.46875,-5.95703 0.0586,-0.3711 0.19532,-1.73828 0.13672,-1.50391 0.33203,-2.08985 0.21484,-0.58593 0.83984,-1.09375 0.64453,-0.50781 1.38672,-0.50781 0.72266,0 1.07422,0.46875 0.37109,0.44922 0.37109,0.97656 0,0.76172 -0.39062,2.14844 -0.44922,1.54297 -0.52735,2.12891 -0.0586,0.66406 -0.21484,1.38672 -0.19531,0.83984 -0.39062,4.41406 l -0.0195,0.72265 0,0.52735 z" />
    <path
       id="path4738"
       style="font-style:normal;font-variant:normal;font-weight:normal;font-stretch:normal;font-family:'Segoe Print';-inkscape-font-specification:'Segoe Print'"
       d="m 180.40486,235.82825 q -2.67578,0 -4.41406,-2.03125 -1.73828,-2.03125 -1.73828,-5.01953 0,-5.03907 3.3789,-9.92188 3.39844,-4.90234 8.125,-4.90234 3.125,0 5.0586,2.40234 1.95312,2.40234 1.95312,5.72266 0,5.07812 -4.02343,9.41406 -4.00391,4.33594 -8.33985,4.33594 z m -2.71484,-7.5586 q 0,1.97266 0.82031,3.22266 0.83984,1.25 2.20703,1.25 2.91016,0 5.83985,-3.18359 2.92968,-3.20313 2.92968,-7.10938 0,-2.40234 -1.13281,-3.88672 -1.11328,-1.5039 -3.00781,-1.5039 -3.14453,0 -5.41016,3.86718 -2.24609,3.84766 -2.24609,7.34375 z" />
    <path
       id="path4740"
       style="font-style:normal;font-variant:normal;font-weight:normal;font-stretch:normal;font-family:'Segoe Print';-inkscape-font-specification:'Segoe Print'"
       d="m 210.65877,219.83215 q -1.01563,0 -2.22656,1.32813 -1.19141,1.32812 -3.65235,5.95703 -3.24219,6.21094 -4.19922,7.07031 -0.9375,0.85938 -1.5625,0.85938 -2.30468,0 -2.30468,-2.22657 0,-0.9375 0.3125,-2.65625 1.07421,-5.89843 1.07421,-12.4414 0,-0.74219 0.625,-1.64063 0.64454,-0.91797 1.21094,-0.91797 1.01563,0 1.44531,0.625 0.42969,0.625 0.42969,2.51954 0,1.97265 -1.17187,8.125 -0.39063,2.03125 -0.39063,2.57812 0,0.3125 0.15625,0.3125 0.29297,0 2.71485,-4.66797 2.4414,-4.74609 4.27734,-6.67969 1.83594,-1.93359 4.04297,-1.93359 1.75781,0 2.85156,1.60156 1.11328,1.60157 1.62109,5.83985 0.54688,4.82422 0.97657,6.01562 0.44922,1.17188 1.40625,1.17188 0.60547,0 1.52343,-0.42969 0.15625,-0.0781 0.23438,-0.0781 0.83984,0 0.83984,0.97657 0,0.85937 -1.15234,1.83593 -1.15234,0.95704 -2.77344,0.95704 -1.66015,0 -2.57812,-1.3086 -0.89844,-1.32812 -1.42578,-7.05078 -0.54688,-5.74219 -2.30469,-5.74219 z" />
    <path
       id="path4742"
       style="font-style:normal;font-variant:normal;font-weight:normal;font-stretch:normal;font-family:'Segoe Print';-inkscape-font-specification:'Segoe Print'"
       d="m 230.20955,208.69934 q -0.41016,0 -0.625,-0.87891 -0.0781,-0.27343 -0.21484,-0.60546 -0.52735,-1.26954 -0.52735,-2.20704 0,-0.78125 0.91797,-1.58203 0.9375,-0.82031 2.07031,-0.82031 0.56641,0 1.26953,0.44922 0.70313,0.42969 0.70313,0.83984 0,0.64453 -0.48828,2.1875 -0.46875,1.54297 -1.52344,2.08985 -1.03516,0.52734 -1.58203,0.52734 z m -2.55859,21.81641 q 0,1.48437 0.41015,3.33984 0.0781,0.35156 0.0781,0.58594 0,0.35156 -0.64453,0.89844 -0.64454,0.5664 -1.36719,0.5664 -1.89453,0 -1.89453,-3.47656 0,-3.59375 1.48437,-11.36719 0.50781,-2.71484 0.50781,-3.33984 0,-1.23047 0.44922,-2.08985 0.44922,-0.8789 1.26953,-0.8789 0.9961,0 1.5625,0.48828 0.58594,0.46875 0.58594,1.05469 0,0.58593 -0.27344,1.54297 -1.46484,5.15625 -1.8164,7.38281 -0.35156,2.22656 -0.35156,5.29297 z" />
    <path
       id="path4744"
       style="font-style:normal;font-variant:normal;font-weight:normal;font-stretch:normal;font-family:'Segoe Print';-inkscape-font-specification:'Segoe Print'"
       d="m 240.81502,235.96497 q -2.92969,0 -4.51172,-1.67969 -1.5625,-1.67969 -1.5625,-4.70703 0,-5.09766 4.04297,-10.74219 4.04297,-5.66406 7.51953,-5.66406 1.58203,0 2.71484,1.71875 1.15235,1.69922 1.15235,3.61328 0,1.15234 -0.50782,1.99219 -0.48828,0.82031 -0.99609,0.82031 -1.13281,0 -1.60156,-2.28516 -0.52735,-2.46094 -1.52344,-2.46094 -2.03125,0 -4.80469,4.82422 -2.77343,4.82422 -2.77343,8.14453 0,3.32032 3.76953,3.32032 2.87109,0 6.75781,-2.69532 1.36719,-0.95703 2.01172,-0.95703 0.66406,0 0.66406,0.76172 0,1.48438 -3.49609,3.75 -3.4961,2.2461 -6.85547,2.2461 z" />
    <path
       id="path4746"
       style="font-style:normal;font-variant:normal;font-weight:normal;font-stretch:normal;font-family:'Segoe Print';-inkscape-font-specification:'Segoe Print'"
       d="m 268.95955,227.74231 q -2.73438,3.67187 -5.41016,5.50781 -2.67578,1.83594 -4.90234,1.83594 -1.50391,0 -2.59766,-1.26953 -1.09375,-1.26953 -1.09375,-3.26172 0,-5.13672 4.58985,-11.05469 4.58984,-5.9375 9.12109,-5.9375 1.64063,0 2.44141,1.875 0.2539,0.625 0.80078,0.625 1.5625,0 1.5625,1.21094 0,0.60547 -0.19531,1.66016 -1.05469,5.76171 -1.05469,8.125 0,4.72656 1.79687,5.66406 0.85938,0.46875 0.85938,1.15234 0,0.60547 -0.83985,1.21094 -0.83984,0.625 -1.62109,0.625 -1.50391,0 -2.48047,-2.07031 -0.97656,-2.07032 -0.97656,-5.89844 z m -1.19141,-10.99609 q -2.57812,0 -5.99609,4.84375 -3.41797,4.82421 -3.41797,8.00781 0,2.24609 1.48438,2.24609 2.14843,0 5.95703,-4.33594 3.80859,-4.33593 3.80859,-7.96875 0,-2.79296 -1.83594,-2.79296 z" />
  </g>
</svg>
